#N canvas 1068 231 970 680 10;
#X obj 352 604 cnv 15 100 60 empty empty empty 20 12 0 14 -195568 -66577
0;
#N canvas 1021 568 450 300 gemwin 0;
#X obj 131 137 gemwin;
#X obj 67 112 outlet;
#X obj 67 10 inlet;
#X msg 67 70 set destroy;
#X msg 131 113 create \, 1;
#X msg 197 113 destroy;
#X msg 142 68 set create;
#X obj 67 41 route create destroy;
#X msg 259 59 frame 60;
#X obj 259 39 loadbang;
#X connect 2 0 7 0;
#X connect 3 0 1 0;
#X connect 4 0 0 0;
#X connect 5 0 0 0;
#X connect 6 0 1 0;
#X connect 7 0 3 0;
#X connect 7 0 4 0;
#X connect 7 1 6 0;
#X connect 7 1 5 0;
#X connect 7 2 0 0;
#X connect 8 0 0 0;
#X connect 9 0 8 0;
#X connect 9 0 6 0;
#X restore 357 643 pd gemwin;
#X msg 357 621 destroy;
#X text 353 600 Create window:;
#X obj 26 9 gemhead 100;
#X msg 82 67 dimen 1920 1080;
#X obj 41 368 gemhead;
#X floatatom 151 519 5 0 0 0 - - -;
#X floatatom 94 561 5 0 0 0 - - -;
#X obj 41 336 tgl 15 0 empty empty empty 0 -6 0 8 -262144 -1 -1 0 1
;
#X obj 41 423 pix_texture;
#X obj 41 450 t a b;
#X obj 41 579 square 2;
#X obj 41 541 rotateXYZ -40 0 200;
#X floatatom 84 521 5 0 0 0 - - -;
#N canvas 125 50 450 300 rotation 0;
#X obj 112 29 inlet;
#X obj 112 105 % 360;
#X obj 112 57 i;
#X obj 112 131 outlet;
#X obj 112 83 + 1;
#X connect 0 0 2 0;
#X connect 1 0 2 1;
#X connect 1 0 3 0;
#X connect 2 0 4 0;
#X connect 4 0 1 0;
#X restore 151 494 pd rotation;
#X obj 67 316 mpv 3840 2160;
#X msg 107 280 pause;
#X msg 150 287 play;
#X msg 88 92 dimen -1 -1;
#X floatatom 406 424 5 0 0 0 - - -;
#X text 166 92 if w == h == -1 \, then framebuffer will be automatically
resized according to media resolution;
#X text 386 33 mpv inherit from [gemframebuffer] \, please to its documentation
;
#X obj 474 53 gemframebuffer;
#X text 150 305 the 2 leftmost outlets are the same of gemframebuffer
object;
#X text 153 318 the 3rd one outputs media properties;
#X obj 291 485 openpanel;
#X obj 292 459 bng 15 250 50 0 empty empty empty 17 7 0 10 -262144
-1 -1;
#X msg 387 260 command loadfile BallDrops.mov;
#X msg 109 248 command loadfile inlight_rotate_full_hap.mov;
#X obj 151 472 spigot;
#X obj 175 440 tgl 15 0 empty empty empty 17 7 0 10 -262144 -1 -1 0
1;
#X msg 106 179 command seek 3;
#X msg 100 157 command seek -3;
#X msg 96 133 command seek 2 absolute;
#X obj 414 139 tgl 15 0 empty empty empty 17 7 0 10 -262144 -1 -1 0
1;
#X msg 109 203 command seek 50 absolute-percent+exact;
#X obj 417 189 tgl 15 0 empty empty empty 17 7 0 10 -262144 -1 -1 1
1;
#X msg 415 160 property_typed b pause \$1;
#X msg 418 210 property_typed b loop \$1;
#X text 584 110 you can force property and command argument type with
:;
#X text 602 129 b : bool;
#X text 602 153 d : double;
#X text 602 141 i : integer;
#X msg 598 224 property_typed b loop;
#X msg 595 200 property loop;
#X msg 609 253 property_typed d time-pos;
#X msg 615 275 property_typed d percent-pos;
#X msg 291 508 command loadfile \$1;
#X msg 832 278 log_level info;
#X msg 832 258 log_level debug;
#X obj 406 370 route property;
#X floatatom 577 423 5 0 0 0 - - -;
#X obj 25 51 alpha;
#X obj 41 394 alpha;
#X msg 72 44 dimen -1 -1 \, rectangle 1 \, format RGBA;
#X floatatom 632 421 5 0 0 0 - - -;
#X obj 635 527 hsl 128 15 0 100 0 0 empty empty position 5 -8 0 10
-262144 -1 -1 3048 1;
#X msg 632 493 set \$1;
#X msg 604 592 property_typed d percent-pos \$1;
#X obj 632 443 int;
#X obj 632 466 change;
#X obj 102 11 loadbang;
#N canvas 0 50 450 300 alpha 0;
#X msg 84 96 property alpha yes;
#X msg 84 73 property alpha no;
#X msg 84 27 property alpha blend-tiles;
#X msg 84 50 property alpha blend;
#X obj 34 218 outlet;
#X text 58 2 you can control how alpha channel should be rendered;
#X text 93 142 don't forget to adapt the internal framebuffer format
to support alpha channel if needed;
#X msg 137 172 format RGBA;
#X connect 0 0 4 0;
#X connect 1 0 4 0;
#X connect 2 0 4 0;
#X connect 3 0 4 0;
#X connect 7 0 4 0;
#X restore 609 317 pd alpha;
#X obj 608 573 hsl 128 15 0 100 0 0 empty empty seek 5 -8 0 10 -262144
-1 -1 0 1;
#X obj 406 398 route duration width height time-pos percent-pos;
#X floatatom 463 424 5 0 0 0 - - -;
#X floatatom 520 424 5 0 0 0 - - -;
#X msg 121 225 command loadfile test.mov;
#X obj 691 423 print property;
#X obj 712 397 print others;
#X msg 232 374 property_typed s filename;
#X connect 1 0 2 0;
#X connect 2 0 1 0;
#X connect 4 0 53 0;
#X connect 5 0 16 0;
#X connect 6 0 54 0;
#X connect 7 0 13 3;
#X connect 8 0 12 1;
#X connect 9 0 6 0;
#X connect 10 0 11 0;
#X connect 11 0 13 0;
#X connect 11 1 30 0;
#X connect 13 0 12 0;
#X connect 14 0 13 1;
#X connect 15 0 7 0;
#X connect 16 1 10 1;
#X connect 16 2 51 0;
#X connect 17 0 16 0;
#X connect 18 0 16 0;
#X connect 19 0 16 0;
#X connect 26 0 48 0;
#X connect 27 0 26 0;
#X connect 28 0 16 0;
#X connect 29 0 16 0;
#X connect 30 0 15 0;
#X connect 31 0 30 1;
#X connect 32 0 16 0;
#X connect 33 0 16 0;
#X connect 34 0 16 0;
#X connect 35 0 38 0;
#X connect 36 0 16 0;
#X connect 37 0 39 0;
#X connect 38 0 16 0;
#X connect 39 0 16 0;
#X connect 44 0 16 0;
#X connect 45 0 16 0;
#X connect 46 0 16 0;
#X connect 47 0 16 0;
#X connect 48 0 16 0;
#X connect 49 0 16 0;
#X connect 50 0 16 0;
#X connect 51 0 65 0;
#X connect 51 1 70 0;
#X connect 53 0 16 0;
#X connect 54 0 10 0;
#X connect 55 0 16 0;
#X connect 56 0 60 0;
#X connect 58 0 57 0;
#X connect 59 0 16 0;
#X connect 60 0 61 0;
#X connect 61 0 58 0;
#X connect 62 0 55 0;
#X connect 63 0 16 0;
#X connect 64 0 59 0;
#X connect 65 0 20 0;
#X connect 65 1 66 0;
#X connect 65 2 67 0;
#X connect 65 3 52 0;
#X connect 65 4 56 0;
#X connect 65 5 69 0;
#X connect 68 0 16 0;
#X connect 71 0 16 0;
